<svg width="43" height="47" viewBox="0 0 43 47" fill="none" xmlns="http://www.w3.org/2000/svg">
<g clip-path="url(#clip0)">
<path d="M17.7154 23.6701C16.775 20.5488 15.8674 17.5727 14.9885 14.5889C14.8902 14.2213 14.6377 14.2704 14.3967 14.2241C13.9865 14.1618 13.606 13.974 13.3078 13.6867C13.0096 13.3993 12.8084 13.0266 12.732 12.6201C12.6315 12.234 12.6465 11.8268 12.7751 11.4487C12.9038 11.0707 13.1405 10.7381 13.456 10.4921C13.7716 10.2461 14.1523 10.0973 14.5513 10.064C14.9503 10.0308 15.35 10.1146 15.7014 10.3051C15.9574 10.449 16.181 10.6436 16.3585 10.877C16.5359 11.1104 16.6635 11.3777 16.7333 11.6623C16.8031 11.947 16.8137 12.243 16.7644 12.532C16.7151 12.8211 16.6069 13.0972 16.4465 13.3432C16.3362 13.5081 16.1733 13.6379 16.3451 13.8873C18.0557 16.3552 19.762 18.8303 21.4641 21.3127C21.679 21.1691 21.6455 20.9749 21.6601 20.7987C21.8823 17.9818 22.0925 15.1435 22.3454 12.3492C22.3715 11.9853 22.154 11.9573 21.9438 11.8412C21.5571 11.6392 21.2412 11.3248 21.0377 10.9397C20.8343 10.5546 20.7529 10.1168 20.8044 9.68418C20.8601 9.2614 21.0462 8.86607 21.3368 8.55282C21.6274 8.23957 22.0083 8.02386 22.4268 7.93551C22.8454 7.84715 23.2808 7.89051 23.6731 8.05959C24.0654 8.22868 24.3951 8.51513 24.6166 8.87938C24.8912 9.32122 24.9928 9.84866 24.9021 10.3611C24.8114 10.8735 24.5346 11.335 24.1247 11.6576C23.936 11.8066 23.8046 11.9156 23.8757 12.2044C24.6046 15.2283 25.3105 18.2584 26.0264 21.2797C26.0673 21.3669 26.1145 21.4509 26.1678 21.5311C26.4211 21.0694 26.654 20.6932 26.8358 20.2875C27.4303 18.8852 28.3249 17.6117 29.0578 16.2646C29.4305 15.5801 29.7799 14.8773 30.1788 14.1981C30.3394 13.9213 30.1915 13.807 30.0251 13.6238C29.7013 13.2291 29.5253 12.7343 29.5274 12.224C29.5294 11.7137 29.7093 11.2197 30.0362 10.8265C30.3572 10.4607 30.7996 10.2224 31.2822 10.1555C31.7647 10.0885 32.255 10.1974 32.6629 10.462C33.0176 10.6995 33.2962 11.0338 33.4655 11.4249C33.6348 11.8161 33.6876 12.2477 33.6178 12.6684C33.5652 13.073 33.3853 13.4507 33.1039 13.7472C32.8225 14.0437 32.4541 14.2438 32.0518 14.3185C31.92 14.3295 31.7973 14.3903 31.7087 14.4883C31.6202 14.5864 31.5724 14.7143 31.5753 14.8461C31.2232 17.3161 30.8548 19.7864 30.47 22.257C30.3512 23.0828 30.234 23.9143 30.1095 24.7416C29.985 25.5689 29.8708 25.6733 29.0419 25.692C27.6044 25.7249 26.1695 25.8336 24.7432 26.0177C22.3545 26.3246 20.2201 27.3513 18.095 28.4124C17.7676 28.5739 17.4448 28.7526 17.1204 28.9256C16.4833 29.2684 16.293 29.227 15.8542 28.6489L11.976 23.298C11.2455 22.2995 10.5034 21.304 9.78287 20.2967C9.75379 20.2372 9.71302 20.1842 9.66296 20.1409C9.61291 20.0975 9.55461 20.0646 9.49151 20.0442C9.42841 20.0237 9.36182 20.0162 9.29568 20.0219C9.22954 20.0277 9.16521 20.0466 9.10652 20.0776C8.65038 20.2207 8.15844 20.1982 7.71793 20.0141C7.27743 19.8301 6.91684 19.4963 6.7001 19.0721C6.46244 18.6384 6.38474 18.1351 6.48049 17.6497C6.57624 17.1642 6.8394 16.7272 7.2243 16.4144C7.59679 16.1125 8.06531 15.9535 8.54479 15.9663C9.02427 15.9792 9.48293 16.163 9.83748 16.4845C10.1366 16.7317 10.3597 17.058 10.4811 17.4261C10.6026 17.7942 10.6175 18.1891 10.5242 18.5657C10.4822 18.6772 10.4853 18.8005 10.533 18.9095C10.5806 19.0185 10.669 19.1047 10.7793 19.1498C12.5248 20.2707 14.2802 21.3827 16.0087 22.5327C16.5557 22.9435 17.1254 23.3232 17.7154 23.6701ZM17.2754 17.5714L17.2281 17.5101L17.2481 17.5848C17.9432 19.8895 18.643 22.197 19.3478 24.5073C19.4316 24.7158 19.4899 24.9337 19.5215 25.1563C19.5326 25.6826 19.1061 26.0737 18.761 25.846C17.3987 24.9796 15.9384 24.1395 14.631 23.1784C14.06 22.7526 13.4309 22.4101 12.8214 22.0254C14.0427 23.8651 15.3293 25.6258 16.6043 27.3895C16.7892 27.6417 16.9421 27.5207 17.1285 27.4093C20.5787 25.4119 24.4976 24.3631 28.4843 24.3702C28.8678 24.3722 28.9435 24.2165 28.9762 23.9001C29.2037 22.442 29.4343 20.9954 29.61 19.5513C29.6826 19.0148 29.7176 18.4761 29.796 17.9381L29.6434 17.899C29.2783 18.5198 28.9409 19.1518 28.5993 19.791C27.9006 21.1043 27.1216 22.3714 26.3734 23.6611C26.0564 24.2075 25.9215 24.0959 25.4876 23.8366C25.3909 23.7607 25.3119 23.6647 25.2559 23.5554C25.2 23.446 25.1685 23.3259 25.1637 23.2032C24.6457 20.9906 24.1219 18.7796 23.6055 16.5728C23.5547 16.3833 23.504 16.1937 23.4517 15.9984C23.3664 16.1784 23.3178 16.3734 23.3088 16.5722C23.1404 18.8207 22.973 21.0649 22.8064 23.3047C22.8176 23.4636 22.7732 23.6216 22.6808 23.7518C22.5884 23.882 22.4537 23.9764 22.2996 24.0189C22.1524 24.0549 21.9974 24.0405 21.8597 23.978C21.7219 23.9155 21.6094 23.8085 21.5402 23.6743C21.096 23.03 20.6617 22.3769 20.2102 21.7283C19.2134 20.3579 18.2423 18.9683 17.2754 17.5714ZM22.636 9.18786C22.4434 9.25742 22.2839 9.39642 22.189 9.57738C22.0941 9.75835 22.0707 9.9681 22.1235 10.1652C22.1762 10.3622 22.3012 10.5323 22.4738 10.6416C22.6464 10.751 22.854 10.7918 23.0556 10.7558C23.1574 10.7303 23.2529 10.6845 23.3365 10.6211C23.4201 10.5578 23.4899 10.4782 23.5418 10.3872C23.5936 10.2962 23.6265 10.1957 23.6383 10.0918C23.6501 9.98788 23.6407 9.88269 23.6105 9.78258C23.5893 9.6778 23.5466 9.57854 23.4851 9.49098C23.4237 9.40342 23.3448 9.32945 23.2534 9.27365C23.162 9.21786 23.06 9.18146 22.9538 9.1667C22.8475 9.15194 22.7394 9.15914 22.636 9.18786ZM13.9341 12.3107C13.9549 12.4133 13.9961 12.5107 14.0553 12.5972C14.1145 12.6836 14.1904 12.7574 14.2787 12.8141C14.367 12.8707 14.4658 12.9092 14.5693 12.9272C14.6728 12.9452 14.7789 12.9424 14.8813 12.9188C15.0767 12.865 15.2433 12.7371 15.3455 12.5625C15.4477 12.3879 15.4774 12.1805 15.4282 11.9847C15.41 11.882 15.3716 11.7839 15.3152 11.6961C15.2588 11.6083 15.1855 11.5326 15.0996 11.4732C15.0137 11.4138 14.9168 11.372 14.8145 11.3501C14.7122 11.3282 14.6065 11.3268 14.5036 11.3458C14.401 11.369 14.3042 11.4129 14.2193 11.4748C14.1343 11.5368 14.063 11.6153 14.0096 11.7057C13.9562 11.7962 13.922 11.8965 13.909 12.0005C13.896 12.1046 13.9045 12.2101 13.9341 12.3107ZM8.67843 18.8935C8.77703 18.8738 8.87079 18.8348 8.95433 18.7789C9.03788 18.723 9.10955 18.6513 9.16525 18.5677C9.22095 18.4842 9.25958 18.3906 9.27891 18.2922C9.29825 18.1938 9.29792 18.0926 9.27793 17.9944C9.22411 17.796 9.10522 17.6213 8.94018 17.4982C8.77515 17.375 8.57345 17.3105 8.36717 17.3149C8.17833 17.3873 8.01859 17.5196 7.9127 17.6915C7.80681 17.8634 7.7607 18.0652 7.7815 18.2657C7.79663 18.3668 7.83219 18.4637 7.88603 18.5506C7.93988 18.6375 8.01088 18.7126 8.09474 18.7713C8.1786 18.83 8.27357 18.8711 8.37391 18.8921C8.47424 18.9131 8.57784 18.9136 8.67843 18.8935ZM32.3489 12.1279C32.3261 12.0303 32.284 11.9383 32.2251 11.8572C32.1662 11.776 32.0917 11.7074 32.0059 11.6553C31.9201 11.6033 31.8247 11.5687 31.7253 11.5538C31.6259 11.5389 31.5245 11.5438 31.427 11.5683C31.2821 11.6047 31.1512 11.683 31.0507 11.7932C30.9502 11.9035 30.8845 12.0409 30.862 12.1881C30.8395 12.3352 30.8611 12.4857 30.9241 12.6206C30.9871 12.7554 31.0887 12.8686 31.2161 12.946C31.3436 13.0233 31.4911 13.0613 31.6404 13.0553C31.7896 13.0493 31.9337 12.9994 32.0548 12.912C32.1758 12.8246 32.2683 12.7036 32.3206 12.564C32.3729 12.4245 32.3828 12.2728 32.3489 12.1279Z" fill="#FFBE83"/>
<path d="M24.124 30.9199C22.1065 31.4599 20.089 31.9998 18.0772 32.5382C16.4113 32.984 16.4885 32.9264 16.0704 31.3642C15.9595 31.0162 15.9868 30.6388 16.1465 30.3098C16.3017 30.0715 16.5154 29.8766 16.7672 29.7436C18.8902 28.3041 21.2686 27.2811 23.7747 26.7296C25.6971 26.2634 27.6771 26.0798 29.6517 26.1847C29.9439 26.1733 30.2347 26.2284 30.5021 26.3458C30.7695 26.4631 31.0065 26.6396 31.1952 26.862C31.3838 27.0843 31.5192 27.3466 31.591 27.629C31.6628 27.9114 31.6692 28.2065 31.6096 28.4919C31.5585 28.9241 31.2449 29.045 30.8875 29.1406L24.124 30.9199ZM23.792 29.6793L29.7869 28.075C29.9368 28.0348 30.1835 28.0796 30.1474 27.8061C30.1113 27.5327 29.8995 27.5955 29.7358 27.5839C28.3434 27.493 26.945 27.5414 25.5617 27.7285C23.1689 28.0371 20.8651 28.836 18.7955 30.0748C18.4312 30.2831 18.0699 30.5029 17.7363 30.7337C17.5573 30.8493 17.2533 30.9368 17.4055 31.2285C17.5576 31.5201 17.7606 31.2627 17.922 31.2195L23.792 29.6793Z" fill="#FFBE83"/>
<path d="M31.4443 29.9521L17.7193 33.6252C17.5557 33.669 17.4162 33.7757 17.3314 33.9219C17.2465 34.0681 17.2234 34.2419 17.267 34.4048C17.3106 34.5678 17.4175 34.7068 17.564 34.7911C17.7105 34.8754 17.8847 34.8981 18.0483 34.8543L31.7733 31.1812C31.9368 31.1375 32.0764 31.0307 32.1612 30.8845C32.246 30.7383 32.2692 30.5646 32.2256 30.4016C32.182 30.2386 32.0751 30.0997 31.9286 30.0154C31.7821 29.9311 31.6079 29.9083 31.4443 29.9521Z" fill="#FFBE83"/>
<path d="M20.158 37.1517L31.118 33.6031C31.897 33.3515 31.5738 32.1209 30.7891 32.3739L19.8367 35.9513C19.0578 36.2028 19.381 37.4335 20.1657 37.1804L20.158 37.1517Z" fill="#FFBE83"/>
</g>
<defs>
<clipPath id="clip0">
<rect width="33.4165" height="39.2414" fill="white" transform="translate(0 8.63892) rotate(-14.9825)"/>
</clipPath>
</defs>
</svg>
