<svg width="232" height="158" viewBox="0 0 232 158" fill="none" xmlns="http://www.w3.org/2000/svg">
<path d="M78.8787 116.105C78.1566 89.2104 77.3799 63.5424 76.8495 37.8754C76.8629 34.7349 74.7459 34.5786 72.9274 33.6875C69.7955 32.3018 67.1725 29.9815 65.4207 27.0469C63.6689 24.1123 62.8746 20.7082 63.1475 17.3047C63.184 14.0123 64.1859 10.8025 66.0301 8.07036C67.8742 5.33826 70.48 3.20319 73.5265 1.92803C76.5731 0.652872 79.9275 0.293299 83.1766 0.893591C86.4258 1.49388 89.4278 3.02783 91.8131 5.30656C93.5397 7.00697 94.8985 9.04166 95.8058 11.2852C96.7131 13.5288 97.1496 15.9338 97.0885 18.3518C97.0274 20.7699 96.4699 23.1498 95.4505 25.345C94.431 27.5402 92.9712 29.5041 91.1609 31.1157C89.9251 32.19 88.3462 32.8702 89.1733 35.2292C97.4459 58.5902 105.669 82 113.843 105.459C115.865 104.78 116.019 103.162 116.518 101.79C124.393 79.8392 132.22 57.6921 140.292 35.9878C141.289 33.1459 139.617 32.4517 138.195 31.0716C135.553 28.6243 133.719 25.4362 132.933 21.9282C132.148 18.4203 132.449 14.7577 133.797 11.424C135.157 8.17792 137.496 5.43296 140.489 3.56841C143.483 1.70386 146.984 0.811767 150.508 1.01541C154.033 1.21905 157.407 2.50837 160.164 4.70521C162.921 6.90204 164.926 9.89793 165.9 13.2789C167.129 17.3927 166.795 21.8134 164.962 25.6974C163.128 29.5815 159.924 32.657 155.96 34.3373C154.135 35.1146 152.852 35.698 152.792 38.1514C152.042 63.8128 151.095 89.4734 150.246 115.085C150.382 115.868 150.577 116.64 150.827 117.394C153.845 114.267 156.515 111.775 158.842 108.939C166.617 99.0599 176.502 90.8581 185.258 81.7191C189.711 77.0763 194.016 72.2366 198.665 67.6928C200.544 65.8361 199.614 64.6053 198.686 62.7856C196.963 58.9409 196.634 54.6191 197.757 50.5598C198.879 46.5004 201.383 42.9561 204.839 40.5333C208.188 38.3161 212.228 37.3777 216.216 37.8906C220.204 38.4035 223.872 40.3332 226.546 43.3251C228.856 45.9853 230.35 49.2509 230.85 52.733C231.351 56.2151 230.836 59.7671 229.368 62.966C228.072 66.0736 225.821 68.6915 222.937 70.4428C220.053 72.1941 216.686 72.9885 213.32 72.7118C212.247 72.5137 211.138 72.7313 210.22 73.3201C209.302 73.909 208.645 74.8247 208.381 75.8803C200.223 94.7872 191.934 113.661 183.514 132.501C180.778 138.82 178.042 145.187 175.257 151.506C172.472 157.824 171.337 158.408 164.695 156.76C153.176 153.906 141.514 151.661 129.757 150.035C110.068 147.301 90.8455 150.85 71.6216 154.694C68.6641 155.27 65.706 155.993 62.7481 156.668C56.9308 158.017 55.5058 157.275 53.264 151.72L33.9794 100.7C30.3264 91.1648 26.575 81.6288 23.0207 72.0446C22.918 71.5082 22.7082 70.998 22.4036 70.5441C22.099 70.0902 21.706 69.7019 21.2478 69.4024C20.7897 69.1029 20.2757 68.8982 19.7366 68.8005C19.1975 68.7029 18.6441 68.7142 18.1095 68.8339C14.1668 68.9846 10.2979 67.7392 7.18897 65.3185C4.08 62.8978 1.93188 59.4582 1.12557 55.6099C0.173111 51.6408 0.645289 47.4647 2.46017 43.8064C4.27506 40.148 7.31811 37.2382 11.0613 35.5819C14.6822 33.9847 18.7579 33.7342 22.5485 34.8759C26.339 36.0176 29.593 38.4759 31.7197 41.8043C33.5659 44.4216 34.6349 47.5041 34.8042 50.6986C34.9734 53.8932 34.2361 57.0707 32.6766 59.8669C32.1005 60.6636 31.8582 61.6524 32.0011 62.6239C32.1441 63.5955 32.661 64.4735 33.4423 65.0719C44.9125 77.7815 56.4813 90.4426 67.7536 103.348C71.2186 107.805 74.9328 112.064 78.8787 116.105ZM88.5959 66.5838L88.3522 65.9939L88.3494 66.6318C88.8883 86.4919 89.4598 106.385 90.064 126.311C90.279 128.153 90.271 130.015 90.0403 131.856C88.988 136.071 84.7431 138.262 82.4886 135.7C73.518 125.847 63.7102 115.991 55.3826 105.503C51.7579 100.875 47.4906 96.7834 43.4709 92.3988C49.2084 109.697 55.6374 126.507 61.968 143.317C62.8934 145.725 64.3736 145.094 66.0995 144.61C97.9054 136.183 131.388 136.326 163.12 145.025C166.17 145.873 167.11 144.797 168.057 142.348C173.029 131.229 178.001 120.21 182.531 109.09C184.272 104.975 185.718 100.761 187.509 96.6466L186.379 96.0038C182.126 100.157 178.069 104.458 173.962 108.808C165.552 117.752 156.601 126.154 147.847 134.802C144.138 138.467 143.306 137.285 140.413 134.28C139.807 133.465 139.386 132.53 139.177 131.538C138.969 130.546 138.979 129.521 139.206 128.533C139.877 109.79 140.499 91.0475 141.17 72.3539C141.177 70.7346 141.184 69.1152 141.191 67.4468C140.121 68.6949 139.312 70.1427 138.809 71.7059C132.594 89.2471 126.396 106.756 120.214 124.232C119.958 125.521 119.262 126.683 118.244 127.52C117.226 128.356 115.949 128.816 114.629 128.82C113.379 128.788 112.176 128.338 111.215 127.541C110.253 126.745 109.589 125.649 109.329 124.43C107.188 118.336 105.146 112.193 102.956 106.05C97.9882 92.9756 93.2673 79.8041 88.5959 66.5838ZM149.459 11.4419C147.774 11.5784 146.203 12.3396 145.055 13.575C143.907 14.8104 143.266 16.4301 143.259 18.1137C143.252 19.7973 143.879 21.4224 145.016 22.6676C146.153 23.9128 147.718 24.6874 149.401 24.8383C150.267 24.8557 151.127 24.6979 151.93 24.3745C152.733 24.051 153.462 23.5687 154.072 22.9566C154.682 22.3445 155.162 21.6154 155.481 20.8134C155.801 20.0114 155.953 19.1532 155.93 18.2906C155.988 17.4101 155.864 16.5271 155.564 15.6967C155.265 14.8662 154.797 14.1061 154.19 13.4636C153.583 12.8211 152.849 12.3101 152.035 11.9623C151.221 11.6144 150.344 11.4373 149.459 11.4419ZM73.3909 17.4467C73.3341 18.3092 73.4511 19.1744 73.7351 19.9912C74.019 20.808 74.4642 21.5599 75.0444 22.2026C75.6245 22.8454 76.3279 23.3659 77.1131 23.7335C77.8982 24.1012 78.7493 24.3086 79.6162 24.3434C81.2888 24.3379 82.8928 23.6805 84.0851 22.5117C85.2774 21.343 85.9634 19.7557 85.9962 18.0895C86.074 17.2321 85.9808 16.3679 85.7221 15.5466C85.4633 14.7253 85.044 13.9631 84.4883 13.3039C83.9327 12.6447 83.2516 12.1016 82.4844 11.7057C81.7172 11.3099 80.879 11.0692 80.018 10.9975C79.1508 10.96 78.2851 11.1 77.4742 11.4088C76.6634 11.7177 75.9247 12.1888 75.3037 12.7931C74.6827 13.3974 74.1926 14.1221 73.8636 14.9225C73.5347 15.7228 73.3738 16.5819 73.3909 17.4467ZM17.2673 58.476C18.0953 58.5328 18.9263 58.4261 19.7128 58.162C20.4993 57.898 21.2256 57.4818 21.8503 56.9373C22.4749 56.3929 22.9855 55.7309 23.3528 54.9894C23.72 54.2479 23.9367 53.4414 23.9904 52.6162C23.992 50.9191 23.4239 49.2703 22.3765 47.932C21.3292 46.5937 19.8627 45.6428 18.2105 45.2306C16.5498 45.3973 14.9908 46.1052 13.7749 47.2445C12.5591 48.3837 11.7544 49.8908 11.4855 51.5321C11.3868 52.37 11.4599 53.219 11.7003 54.0279C11.9406 54.8368 12.3433 55.5886 12.8839 56.2379C13.4245 56.8871 14.0917 57.4202 14.8452 57.805C15.5987 58.1897 16.4227 58.418 17.2673 58.476ZM220.435 55.9105C220.464 55.084 220.329 54.2599 220.036 53.4862C219.743 52.7125 219.298 52.0046 218.727 51.4038C218.157 50.8031 217.472 50.3214 216.713 49.987C215.954 49.6526 215.136 49.472 214.306 49.4558C213.074 49.4318 211.861 49.7712 210.822 50.4314C209.782 51.0916 208.962 52.0431 208.463 53.1664C207.965 54.2897 207.811 55.5348 208.02 56.7452C208.23 57.9556 208.793 59.0774 209.64 59.9696C210.488 60.8619 211.581 61.4848 212.782 61.7602C213.983 62.0355 215.239 61.9511 216.393 61.5174C217.546 61.0837 218.545 60.3201 219.264 59.3226C219.983 58.325 220.39 57.1379 220.435 55.9105Z" fill="#EACABA" fill-opacity="0.6"/>
</svg>
