<svg width="200" height="128" viewBox="0 0 200 128" fill="none" xmlns="http://www.w3.org/2000/svg">
<path d="M18.1818 101.912L20.0606 99.5657C20.856 100.278 21.7553 100.864 22.7273 101.303C23.5788 101.671 24.4972 101.858 25.4242 101.851C26.2348 101.9 27.0429 101.721 27.7576 101.333C28.0211 101.191 28.2417 100.98 28.3963 100.723C28.5509 100.466 28.6338 100.171 28.6364 99.8705C28.646 99.6237 28.5959 99.3783 28.4904 99.1553C28.3848 98.9323 28.2269 98.7385 28.0303 98.5905C27.4241 98.2145 26.7395 97.985 26.0303 97.92L23.0303 97.5238C21.8923 97.3902 20.8285 96.8873 20 96.0914C19.6506 95.7171 19.3794 95.2761 19.2024 94.7945C19.0255 94.3129 18.9463 93.8005 18.9697 93.2876C18.9416 92.611 19.0789 91.9377 19.3694 91.3267C19.66 90.7157 20.095 90.1856 20.6364 89.7829C21.9328 88.8233 23.5123 88.3296 25.1212 88.381C26.2983 88.3905 27.4657 88.5965 28.5758 88.9905C29.6786 89.3307 30.707 89.8788 31.6061 90.6057L29.8485 93.0743C29.0862 92.3864 28.2158 91.8303 27.2727 91.4286C26.4792 91.1246 25.637 90.9696 24.7879 90.9714C24.0589 90.9296 23.3332 91.0988 22.697 91.4591C22.4546 91.5815 22.2502 91.7684 22.1059 91.9994C21.9617 92.2304 21.8831 92.4968 21.8788 92.7695C21.8687 92.9884 21.9134 93.2062 22.0087 93.4032C22.104 93.6002 22.2469 93.77 22.4242 93.8972C22.9689 94.2481 23.5962 94.4479 24.2424 94.4762L27.2727 94.9943C28.5751 95.1294 29.8087 95.649 30.8182 96.4876C31.2228 96.8793 31.538 97.3546 31.7421 97.8808C31.9461 98.407 32.0341 98.9715 32 99.5352C32.0196 100.257 31.8643 100.972 31.5475 101.62C31.2307 102.268 30.762 102.828 30.1818 103.253C28.7584 104.232 27.0552 104.713 25.3333 104.625C24.0557 104.624 22.7902 104.376 21.6061 103.893C20.3579 103.44 19.1988 102.77 18.1818 101.912Z" fill="#474747"/>
<path d="M50.0303 96.4877C50.0409 97.5903 49.8135 98.6821 49.3636 99.6877C48.9504 100.667 48.3537 101.556 47.6061 102.309C45.9765 103.874 43.7983 104.728 41.5455 104.686C40.4227 104.697 39.3094 104.479 38.2727 104.046C37.2823 103.642 36.3773 103.053 35.6061 102.309C34.8584 101.556 34.2617 100.667 33.8485 99.6877C33.4096 98.6786 33.183 97.5891 33.183 96.4877C33.183 95.3863 33.4096 94.2968 33.8485 93.2877C34.2617 92.3087 34.8584 91.4189 35.6061 90.6667C36.3773 89.9228 37.2823 89.3333 38.2727 88.9296C39.3536 88.5106 40.5097 88.3238 41.6667 88.381C43.9195 88.3388 46.0977 89.1932 47.7273 90.7581C48.4749 91.5103 49.0716 92.4001 49.4848 93.3791C49.8804 94.3656 50.0662 95.4245 50.0303 96.4877ZM46.6667 96.4877C46.6801 95.7867 46.5458 95.0908 46.2727 94.4458C46.0384 93.8353 45.6885 93.2764 45.2424 92.8C44.7779 92.3391 44.2336 91.9673 43.6364 91.7029C43.0109 91.4458 42.3423 91.3114 41.6667 91.3067C40.9907 91.3083 40.3216 91.4429 39.697 91.7029C39.093 91.9522 38.547 92.3247 38.0932 92.7967C37.6395 93.2688 37.2879 93.8303 37.0606 94.4458C36.7875 95.0908 36.6532 95.7867 36.6667 96.4877C36.6301 97.5001 36.9003 98.4998 37.4414 99.3543C37.9826 100.209 38.7692 100.878 39.697 101.272C40.3216 101.532 40.9907 101.667 41.6667 101.669C42.3423 101.664 43.0109 101.529 43.6364 101.272C44.2336 101.008 44.7779 100.636 45.2424 100.175C46.1592 99.1686 46.6674 97.8528 46.6667 96.4877Z" fill="#474747"/>
<path d="M60.1818 101.608C60.9795 101.621 61.7689 101.443 62.4849 101.09C63.2212 100.737 63.8725 100.227 64.3939 99.5962L66.5455 101.73C65.7596 102.652 64.7751 103.381 63.6667 103.863C62.5436 104.377 61.325 104.647 60.0909 104.655C57.8458 104.686 55.6751 103.846 54.0303 102.309C53.2498 101.558 52.6317 100.654 52.2146 99.6524C51.7974 98.6508 51.5903 97.5734 51.6061 96.4876C51.593 95.375 51.8204 94.2727 52.2727 93.2572C52.686 92.2872 53.283 91.4074 54.0303 90.6667C55.6687 89.1157 57.841 88.2636 60.0909 88.2895C61.358 88.2929 62.6092 88.5737 63.7576 89.1124C64.8999 89.6354 65.8984 90.4304 66.6667 91.4286L64.4546 93.6229C63.9293 92.9479 63.2549 92.4053 62.4849 92.0381C61.8139 91.692 61.0764 91.4964 60.323 91.4649C59.5696 91.4333 58.8184 91.5665 58.1212 91.8553C57.5108 92.1119 56.9552 92.4844 56.4848 92.9524C56.0388 93.4288 55.6889 93.9877 55.4545 94.5981C55.1814 95.2432 55.0472 95.9391 55.0606 96.64C55.0508 97.3407 55.1849 98.0358 55.4545 98.6819C55.7175 99.2826 56.0871 99.83 56.5455 100.297C57.0035 100.758 57.5499 101.121 58.1515 101.364C58.8049 101.582 59.4956 101.665 60.1818 101.608Z" fill="#474747"/>
<path d="M68.4545 104.442V88.5638H71.7273V104.442H68.4545Z" fill="#474747"/>
<path d="M73.0909 104.442L79.5757 88.5638H83.3636L89.7576 104.442H86.2424L84.6364 100.267H78.1212L76.4848 104.442H73.0909ZM79.1515 97.6152H83.6364L81.3939 91.7638L79.1515 97.6152Z" fill="#474747"/>
<path d="M91.0909 104.442V88.5638H94.3636V101.516H103.03V104.564L91.0909 104.442Z" fill="#474747"/>
<path d="M109.788 104.442V88.5638H117.515C118.258 88.556 118.997 88.6798 119.697 88.9295C120.335 89.1415 120.924 89.4839 121.424 89.9352C121.906 90.3651 122.289 90.8955 122.545 91.4895C122.831 92.1099 122.976 92.7866 122.97 93.4705C122.987 94.4339 122.689 95.3763 122.121 96.1524C121.561 96.9415 120.781 97.546 119.879 97.8895L123.364 104.442H119.727L116.697 98.3466H113.061V104.442H109.788ZM117.212 91.4286H113.061V95.6952H117.212C117.854 95.7253 118.483 95.5072 118.97 95.0857C119.187 94.8983 119.36 94.664 119.476 94.4002C119.591 94.1364 119.646 93.8499 119.636 93.5619C119.648 93.2691 119.595 92.9773 119.479 92.7082C119.364 92.4391 119.19 92.1997 118.97 92.0076C118.478 91.5971 117.85 91.3901 117.212 91.4286Z" fill="#474747"/>
<path d="M125.121 104.442V88.5638H137.242V91.4286H128.364V95.0552H134.212V97.8286H128.364V101.608H137.455V104.472L125.121 104.442Z" fill="#474747"/>
<path d="M139.636 104.442V88.5638H142.909V104.442H139.636Z" fill="#474747"/>
<path d="M161.455 96.5181C161.458 97.6337 161.253 98.7401 160.848 99.7791C160.485 100.737 159.928 101.609 159.212 102.339C158.503 103.08 157.646 103.662 156.697 104.046C155.739 104.46 154.709 104.678 153.667 104.686C152.534 104.695 151.412 104.477 150.364 104.046C149.379 103.649 148.482 103.058 147.727 102.309C146.978 101.563 146.371 100.685 145.939 99.7181C145.091 97.649 145.091 95.3263 145.939 93.2571C146.349 92.2853 146.947 91.4048 147.697 90.6667C148.462 89.9299 149.356 89.341 150.333 88.9295C151.446 88.4784 152.638 88.2619 153.837 88.2933C155.036 88.3248 156.216 88.6036 157.303 89.1124C158.474 89.5728 159.515 90.3159 160.333 91.2762L158.061 93.3791C157.525 92.7431 156.865 92.2244 156.121 91.8552C155.387 91.488 154.577 91.3 153.758 91.3067C153.082 91.3113 152.413 91.4458 151.788 91.7029C151.2 91.9681 150.666 92.34 150.212 92.8C149.755 93.2679 149.404 93.8292 149.182 94.4457C148.933 95.0971 148.81 95.79 148.818 96.4876C148.813 97.1949 148.936 97.8972 149.182 98.56C149.427 99.1722 149.787 99.731 150.242 100.206C150.707 100.667 151.251 101.038 151.848 101.303C152.485 101.557 153.163 101.691 153.848 101.699C154.938 101.755 156.012 101.42 156.879 100.754C157.663 100.182 158.205 99.3331 158.394 98.3771H153.303V95.5124H161.455V96.5181Z" fill="#474747"/>
<path d="M163.636 88.5638H166.667L174.515 98.8343V88.5638H177.545V104.442H174.515L166.667 93.8057V104.442H163.636V88.5638Z" fill="#474747"/>
<path d="M87.3636 45.379C87.1212 36.9981 86.8485 29.0438 86.6364 20.9981C86.6364 20.0228 86 19.9619 85.4243 19.6876C84.4591 19.2569 83.6498 18.5368 83.1074 17.6257C82.5649 16.7146 82.3157 15.6571 82.3939 14.5981C82.401 13.5739 82.7061 12.5743 83.2718 11.7226C83.8374 10.871 84.6387 10.2046 85.5767 9.8059C86.5147 9.40716 87.5483 9.29351 88.5498 9.47897C89.5513 9.66444 90.4769 10.1409 91.2121 10.8495C91.749 11.3841 92.1696 12.025 92.4472 12.7317C92.7249 13.4383 92.8535 14.1953 92.825 14.9546C92.7966 15.7138 92.6115 16.4589 92.2817 17.1425C91.9519 17.8261 91.4845 18.4333 90.9091 18.9257C90.5455 19.2609 90.0606 19.4743 90.303 20.2057C92.9091 27.459 95.4546 34.7428 98 42.0267C98.6364 41.8133 98.697 41.2952 98.8182 40.8686C101.242 34.0419 103.606 27.1847 106.061 20.3581C106.394 19.5047 105.848 19.2914 105.424 18.8952C104.613 18.1357 104.046 17.1491 103.798 16.0626C103.549 14.9761 103.63 13.8397 104.03 12.8C104.446 11.7905 105.163 10.9359 106.082 10.3541C107.002 9.77231 108.078 9.49217 109.163 9.5524C110.248 9.61263 111.287 10.0103 112.137 10.6903C112.987 11.3704 113.607 12.2992 113.909 13.3486C114.3 14.6243 114.206 16.0002 113.646 17.2105C113.086 18.4208 112.1 19.3794 110.879 19.9009C110.303 20.1448 109.909 20.3276 109.879 21.0895C109.697 29.0743 109.455 37.059 109.212 45.0438C109.258 45.2811 109.319 45.5152 109.394 45.7448C110.303 44.7695 111.152 43.9771 111.848 43.1238C114.333 40.0762 117.333 37.4857 120.03 34.6209C121.394 33.1581 122.697 31.5733 124.121 30.2324C124.697 29.6533 124.424 29.2876 124.121 28.739C123.582 27.5468 123.474 26.2021 123.817 24.9385C124.16 23.6748 124.933 22.5718 126 21.8209C127.028 21.1251 128.271 20.8252 129.501 20.9764C130.731 21.1275 131.866 21.7195 132.697 22.6438C133.405 23.4702 133.864 24.4828 134.02 25.5626C134.176 26.6423 134.022 27.7443 133.576 28.739C133.177 29.7055 132.484 30.5206 131.597 31.0679C130.71 31.6151 129.674 31.8667 128.636 31.7867C128.303 31.7134 127.955 31.7745 127.666 31.9569C127.377 32.1392 127.17 32.4282 127.091 32.7619C124.606 38.6743 122.091 44.5257 119.576 50.4076L117.03 56.32C116.182 58.3314 115.848 58.4838 113.788 57.9962C110.245 57.0679 106.653 56.3354 103.03 55.8019C97.0179 55.2698 90.9593 55.7853 85.1212 57.3257L82.3636 57.9352C80.6061 58.3619 80.1515 58.1486 79.3333 56.3505L73.2727 40.7162C72.1212 37.6686 70.9697 34.8038 69.8485 31.8171C69.5758 31.0247 69.2424 30.7809 68.3333 30.8114C67.1625 30.8035 66.0293 30.3947 65.1205 29.6523C64.2116 28.91 63.5813 27.8784 63.3333 26.7276C63.0697 25.5163 63.2267 24.2508 63.7781 23.1417C64.3294 22.0327 65.242 21.147 66.3636 20.6324C67.4748 20.1365 68.725 20.0543 69.8909 20.4005C71.0567 20.7467 72.0621 21.4986 72.7273 22.5219C73.294 23.3404 73.6226 24.3016 73.6762 25.2976C73.7297 26.2936 73.506 27.2848 73.0303 28.16C72.942 28.2798 72.8781 28.416 72.8425 28.5607C72.8068 28.7054 72.8001 28.8559 72.8226 29.0033C72.8452 29.1506 72.8966 29.2921 72.9738 29.4193C73.0511 29.5466 73.1527 29.6572 73.2727 29.7447C76.8182 33.7067 80.3939 37.6381 83.9091 41.6305C84.9915 42.9426 86.1448 44.1941 87.3636 45.379ZM90.3939 29.9886V29.8057V30.019C90.6061 36.1143 90.7879 42.3924 91 48.5486C91.0767 49.125 91.0767 49.7092 91 50.2857C90.697 51.6267 89.3939 52.2971 88.697 51.5047C85.9091 48.4571 82.8788 45.4095 80.303 42.1486C79.1818 40.7162 77.8485 39.4362 76.6061 38.0952C78.3939 43.459 80.3939 48.6705 82.3939 53.8819C82.6667 54.6438 83.1212 54.4305 83.6667 54.3086C93.4499 51.6425 103.762 51.6425 113.545 54.3086C114.485 54.5524 114.788 54.3086 115.091 53.4552C116.545 49.9809 118.121 46.5676 119.515 43.0933C120.061 41.8133 120.485 40.5028 120.97 39.2228L120.636 39.0095C119.333 40.32 118.091 41.6609 116.818 43.0019C114.242 45.8057 111.515 48.4267 108.818 51.139C107.667 52.2667 107.424 51.9009 106.515 50.9867C106.329 50.7311 106.2 50.4381 106.137 50.1277C106.075 49.8173 106.08 49.4969 106.152 49.1886C106.333 43.3676 106.515 37.5467 106.667 31.7257C106.667 31.2076 106.667 30.72 106.667 30.2019C106.344 30.6001 106.098 31.0547 105.939 31.5428L100 47.8781C99.9258 48.2679 99.7187 48.6195 99.4145 48.8724C99.1103 49.1253 98.728 49.2637 98.3333 49.2637C97.9387 49.2637 97.5564 49.1253 97.2522 48.8724C96.948 48.6195 96.7409 48.2679 96.6667 47.8781C96 45.9886 95.3636 44.0686 94.6667 42.179L90.3939 29.9886ZM109.091 12.739C108.68 12.7148 108.272 12.8146 107.918 13.0257C107.565 13.2368 107.282 13.5495 107.106 13.9235C106.931 14.2976 106.871 14.7159 106.934 15.1247C106.996 15.5334 107.18 15.9139 107.459 16.2172C107.739 16.5204 108.102 16.7325 108.503 16.8263C108.904 16.92 109.323 16.8911 109.707 16.7432C110.091 16.5953 110.422 16.3352 110.658 15.9963C110.894 15.6575 111.024 15.2554 111.03 14.8419C111.042 14.5752 111.002 14.3088 110.911 14.0581C110.819 13.8074 110.679 13.5775 110.499 13.3817C110.318 13.186 110.101 13.0284 109.859 12.918C109.617 12.8077 109.356 12.7468 109.091 12.739ZM85.697 14.7809C85.6805 15.0486 85.7183 15.3168 85.808 15.5694C85.8977 15.8219 86.0375 16.0535 86.2188 16.2502C86.4001 16.4468 86.6193 16.6043 86.863 16.7132C87.1066 16.8222 87.3697 16.8802 87.6364 16.8838C88.1507 16.8838 88.644 16.6783 89.0077 16.3125C89.3714 15.9467 89.5758 15.4506 89.5758 14.9333C89.5959 14.416 89.4108 13.9119 89.0613 13.5318C88.7118 13.1517 88.2265 12.9269 87.7121 12.9067C87.1978 12.8864 86.6965 13.0726 86.3186 13.4241C85.9407 13.7756 85.7171 14.2636 85.697 14.7809ZM68.303 27.4286C68.8206 27.4536 69.3271 27.2725 69.7128 26.9245C70.0985 26.5765 70.3324 26.0897 70.3636 25.5695C70.3493 25.0459 70.1677 24.5409 69.8457 24.1292C69.5236 23.7175 69.0784 23.4211 68.5758 23.2838C68.0559 23.3466 67.5715 23.5811 67.1986 23.9507C66.8256 24.3203 66.5853 24.8039 66.5152 25.3257C66.4814 25.8415 66.6495 26.3502 66.9836 26.7431C67.3176 27.136 67.7911 27.382 68.303 27.4286ZM130.909 26.4838C130.93 26.2177 130.896 25.9501 130.81 25.6977C130.724 25.4452 130.587 25.2132 130.408 25.0161C130.229 24.819 130.012 24.6609 129.769 24.5517C129.527 24.4424 129.265 24.3843 129 24.3809C128.531 24.4402 128.1 24.6695 127.788 25.0259C127.475 25.3822 127.303 25.841 127.303 26.3162C127.303 26.7913 127.475 27.2501 127.788 27.6065C128.1 27.9628 128.531 28.1921 129 28.2514C129.479 28.246 129.939 28.0624 130.292 27.736C130.644 27.4096 130.864 26.9636 130.909 26.4838Z" fill="#474747"/>
<path d="M81.303 58.5448C80.2727 58.5448 79.7576 57.9657 79.2121 56.5029C77.7273 52.7543 76.1818 48.9752 74.8485 45.2267L72.1818 38.3695C71.3333 36.3378 70.5151 34.2044 69.7273 31.9695C69.4848 31.2991 69.303 31.2076 68.6061 31.2381H68.3333C67.0678 31.2311 65.8428 30.7889 64.8616 29.9851C63.8804 29.1812 63.2022 28.0641 62.9394 26.8191C62.6225 25.4931 62.7762 24.0974 63.3737 22.8732C63.9713 21.649 64.9752 20.6732 66.2121 20.1143C67.4104 19.561 68.7675 19.4629 70.0321 19.8383C71.2968 20.2137 72.3834 21.0371 73.0909 22.1562C73.7087 23.0387 74.0675 24.0781 74.1265 25.1558C74.1854 26.2334 73.9421 27.3061 73.4242 28.2514C73.1515 28.7695 73.2121 28.9524 73.6061 29.3791L74.7576 30.6895C77.7879 34.1333 81.1212 37.6991 84.2424 41.2648L85.2121 42.4229C85.7528 43.123 86.3293 43.7944 86.9394 44.4343L86.7879 39.4362C86.5757 33.1276 86.3939 27.2457 86.2424 21.1505C86.2424 20.6324 86.0303 20.541 85.5757 20.3581L85.2424 20.2057C84.1646 19.7603 83.2536 18.9846 82.6389 17.989C82.0243 16.9933 81.7371 15.8282 81.8182 14.6591C81.794 13.5347 82.1198 12.4309 82.7501 11.502C83.3803 10.573 84.2835 9.86541 85.3333 9.4781C86.3353 9.01211 87.4564 8.87032 88.542 9.07229C89.6275 9.27426 90.624 9.81004 91.3939 10.6057C91.9644 11.1317 92.4185 11.7726 92.7265 12.4867C93.0345 13.2008 93.1897 13.9721 93.1818 14.7505C93.1794 15.5936 93.0032 16.4271 92.6641 17.1982C92.3251 17.9694 91.8307 18.6614 91.2121 19.2305L91.0303 19.4133C90.697 19.6571 90.606 19.7486 90.7273 20.0838C92.7576 25.7219 94.7273 31.3905 96.7879 37.0895L98.303 41.3867C98.3762 41.2537 98.4274 41.1095 98.4545 40.96V40.7467L100.424 35.1391C102.162 30.1816 103.939 25.214 105.758 20.2362C105.939 19.7791 105.758 19.6571 105.455 19.3829L105.242 19.2C104.366 18.3669 103.756 17.2896 103.491 16.1061C103.227 14.9225 103.32 13.6865 103.758 12.5562C104.205 11.5163 104.953 10.6352 105.904 10.0268C106.854 9.41832 107.965 9.11044 109.091 9.14286H109.424C110.577 9.2266 111.676 9.66265 112.575 10.3926C113.474 11.1225 114.13 12.1114 114.455 13.2267C114.862 14.6038 114.754 16.0833 114.151 17.3859C113.548 18.6884 112.492 19.724 111.182 20.2971C110.606 20.541 110.455 20.6324 110.455 21.0895C110.455 26.6971 110.152 32.2743 109.97 37.8819L109.788 44.9219L110.121 44.5867C110.697 43.9771 111.212 43.4286 111.697 42.8495C113.282 40.9668 114.971 39.176 116.758 37.4857C117.788 36.48 118.879 35.4133 119.788 34.4381L121.091 33.0057C122 32.0305 122.939 31.0248 123.909 29.9581C124.212 29.6533 124.151 29.5314 123.909 29.0743C123.256 27.7617 123.095 26.2561 123.457 24.8339C123.819 23.4118 124.679 22.1688 125.879 21.3333C126.983 20.5769 128.323 20.2495 129.65 20.4121C130.977 20.5746 132.199 21.2161 133.091 22.2171C133.852 23.0933 134.347 24.1701 134.519 25.3204C134.691 26.4706 134.532 27.6463 134.061 28.7086C133.63 29.7442 132.886 30.6169 131.934 31.2024C130.982 31.7879 129.87 32.0563 128.758 31.9695C128.061 31.9695 127.848 31.9695 127.576 32.701C125.737 37.0895 123.879 41.4578 122 45.8057L118.97 52.8152C118.455 53.9733 117.97 55.1314 117.485 56.2895C116.545 58.4533 116 58.7276 113.758 58.1486C110.273 57.3257 106.636 56.6248 103.03 56.1371C97.068 55.6105 91.0601 56.126 85.2727 57.661C84.5757 57.661 83.8788 57.9657 83.1818 58.1181L82.5454 58.2705C82.142 58.4055 81.7256 58.4974 81.303 58.5448ZM68.7576 30.4762C69.1475 30.4367 69.5383 30.5419 69.8565 30.772C70.1746 31.0022 70.3981 31.3414 70.4848 31.7257C71.2727 33.7575 72.0909 35.8908 72.9394 38.1257L75.7576 44.9219C77.1818 48.701 78.6364 52.4495 80.1212 56.1981C80.7273 57.8133 80.9697 57.9352 82.5454 57.5391L83.2121 57.3867C83.9091 57.3867 84.606 57.0514 85.303 56.9295C91.1831 55.3934 97.2791 54.8679 103.333 55.3752C106.973 55.8751 110.584 56.5668 114.151 57.4476C116.03 57.9048 116.151 57.8133 116.939 56.0152L118.182 52.541L121.212 45.5314L126.788 32.4571C126.902 32.0454 127.162 31.6904 127.52 31.4598C127.878 31.2293 128.308 31.1395 128.727 31.2076C129.692 31.3224 130.667 31.1124 131.5 30.6107C132.334 30.1089 132.978 29.3436 133.333 28.4343C133.736 27.5221 133.872 26.5138 133.728 25.5265C133.583 24.5392 133.162 23.6136 132.515 22.8571C131.758 22.0303 130.736 21.4977 129.628 21.3528C128.52 21.2079 127.396 21.46 126.455 22.0648C125.473 22.7644 124.766 23.7875 124.456 24.9564C124.146 26.1254 124.253 27.3666 124.758 28.4648V28.6476C124.952 28.9198 125.038 29.2553 124.999 29.5881C124.96 29.9209 124.798 30.2269 124.545 30.4457C123.606 31.3905 122.667 32.3962 121.788 33.4933L120.455 34.8952C119.455 35.9924 118.364 37.0591 117.424 38.0952C115.643 39.7393 113.973 41.5007 112.424 43.3676C111.909 43.9771 111.364 44.5562 110.788 45.1352L109.939 46.0191L109.424 46.5676L109.091 45.7143C109.103 45.5825 109.103 45.4499 109.091 45.3181C109.078 45.1762 109.078 45.0334 109.091 44.8914V37.76L109.545 20.9981C109.543 20.6393 109.661 20.2901 109.881 20.0078C110.101 19.7254 110.41 19.5266 110.758 19.4438C111.898 18.9621 112.82 18.0724 113.346 16.9466C113.872 15.8209 113.965 14.539 113.606 13.3486C113.332 12.3857 112.769 11.5317 111.993 10.904C111.217 10.2764 110.267 9.90604 109.273 9.84381H109.091C108.121 9.83553 107.171 10.122 106.365 10.6658C105.559 11.2096 104.936 11.9853 104.576 12.8914C104.174 13.8617 104.08 14.9334 104.308 15.9594C104.536 16.9853 105.074 17.9151 105.848 18.621L106.03 18.7733C106.325 18.9463 106.546 19.2216 106.652 19.5473C106.758 19.873 106.742 20.2265 106.606 20.541C104.828 25.4984 103.071 30.466 101.333 35.4438L99.303 41.2343C99.2489 41.5045 99.1293 41.7571 98.9548 41.9698C98.7804 42.1824 98.5565 42.3485 98.303 42.4533H97.9091L96.0909 37.2724L90.0303 20.2667C89.9023 19.9825 89.8875 19.6598 89.989 19.365C90.0905 19.0702 90.3005 18.8257 90.5757 18.6819H90.7273C91.2649 18.1931 91.694 17.5957 91.9864 16.9288C92.2788 16.2618 92.428 15.5403 92.4242 14.8114C92.4378 14.134 92.31 13.4612 92.049 12.8365C91.7881 12.2118 91.3997 11.6491 90.9091 11.1848C90.222 10.5415 89.364 10.1127 88.4393 9.95042C87.5145 9.78809 86.5629 9.89923 85.6997 10.2703C84.8366 10.6414 84.0991 11.2566 83.5768 12.041C83.0546 12.8255 82.77 13.7455 82.7576 14.6895C82.6904 15.6722 82.9285 16.6516 83.4387 17.4924C83.949 18.3331 84.7063 18.9937 85.606 19.3829H85.8788C86.223 19.4665 86.5283 19.6666 86.7434 19.9495C86.9585 20.2324 87.0705 20.5811 87.0606 20.9371C87.0606 27.0324 87.3939 32.9143 87.5757 39.2229L87.8182 46.2324L87.0909 45.7143C86.1859 44.8424 85.3453 43.9053 84.5757 42.9105L83.606 41.7829C80.5757 38.2171 77.2727 34.6514 74.1515 31.2076L73 29.8971C72.7017 29.6519 72.5053 29.3034 72.4492 28.92C72.3932 28.5366 72.4815 28.146 72.697 27.8248C73.1392 27.0155 73.3454 26.0971 73.2918 25.1752C73.2382 24.2533 72.9269 23.3653 72.3939 22.6133C71.8012 21.6855 70.8987 21.0009 69.8489 20.6824C68.799 20.364 67.6706 20.4327 66.6667 20.8762C65.5639 21.3182 64.6534 22.1404 64.0983 23.1957C63.5431 24.251 63.3793 25.4706 63.6364 26.6362C63.849 27.7278 64.4354 28.7098 65.2936 29.4114C66.1518 30.113 67.2274 30.4898 68.3333 30.4762H68.7576ZM82.7273 54.8572C82.4964 54.8568 82.2723 54.7786 82.091 54.6349C81.9097 54.4912 81.7816 54.2904 81.7273 54.0648L81.1212 52.4191C79.3636 47.8172 77.5454 43.0629 75.9697 38.2476L75.3636 36.4191L76.6364 37.8514L77.8182 39.101C78.7121 39.9943 79.552 40.9408 80.3333 41.9352C82 44.0381 83.8485 46.0191 85.6364 48.0305C86.6667 49.1581 87.7273 50.2552 88.6667 51.3829C88.7411 51.4665 88.8371 51.5279 88.9441 51.5602C89.051 51.5924 89.1647 51.5943 89.2727 51.5657C89.5309 51.4683 89.7591 51.3044 89.9346 51.0905C90.1101 50.8766 90.2267 50.6201 90.2727 50.3467C90.3354 49.9223 90.3354 49.491 90.2727 49.0667V48.7314C90.0909 42.6362 89.8889 36.4495 89.6667 30.1714L90.0909 28.7391L92.1212 34.3771C93.0606 37.0286 94.0303 39.6495 94.9697 42.3314L96.1515 45.7448L96.9394 48.0305C97.2727 49.0057 97.8485 49.1276 98.2121 49.0972C98.5757 49.0667 99.2424 48.7619 99.5454 47.9391C101.424 42.4737 103.313 37.0286 105.212 31.6038C105.354 30.9834 105.645 30.4077 106.061 29.9276L106.788 29.1048V31.6952L106.242 49.1886V49.3714C106.19 49.5967 106.187 49.8307 106.234 50.0571C106.282 50.2835 106.377 50.4967 106.515 50.6819C106.848 51.0476 107.091 51.3219 107.273 51.3219C107.273 51.3219 107.727 51.1086 108.121 50.7124L110.333 48.5181C112.242 46.5981 114.242 44.6171 116.091 42.6057C117.455 41.1429 118.667 39.8629 119.939 38.6133L120.152 38.3695L121.061 38.9181V39.2229L120.606 40.4724C120.273 41.3562 119.939 42.24 119.576 43.1238L117.485 48.061C116.697 49.8895 115.909 51.6876 115.151 53.4857C115.117 53.7071 115.031 53.9172 114.902 54.0993C114.772 54.2814 114.601 54.4302 114.404 54.534C114.206 54.6377 113.987 54.6934 113.765 54.6966C113.542 54.6998 113.322 54.6504 113.121 54.5524C103.404 51.9319 93.1718 51.9319 83.4545 54.5524H83.3333C83.1425 54.6752 82.9394 54.7773 82.7273 54.8572ZM77.3333 39.6191C78.7576 43.8248 80.3636 48 81.8788 52.0229L82.4848 53.6381C82.4848 54.0038 82.6364 54.0038 83.1212 53.8514H83.2727C93.1352 51.1633 103.531 51.1633 113.394 53.8514C114.03 54.0038 114.182 53.8514 114.455 53.2419C115.212 51.4133 115.97 49.6152 116.758 47.8172C117.545 46.0191 118.182 44.5257 118.848 42.88C119.212 42.0267 119.545 41.1124 119.848 40.2591L120 39.8933C118.97 40.9295 118 41.9962 116.97 43.2152C115.091 45.2571 113.091 47.2381 111.182 49.3105L108.97 51.5048C108.364 52.1143 107.97 52.3581 107.545 52.3581C107.03 52.3581 106.667 51.9619 106.182 51.4743C105.96 51.2186 105.799 50.9159 105.71 50.5887C105.62 50.2616 105.606 49.9184 105.667 49.5848V49.4019L106.061 31.8476C104.182 37.2419 102.303 42.6057 100.455 48C100.362 48.4866 100.101 48.9247 99.7186 49.2369C99.3361 49.5492 98.8562 49.7155 98.3636 49.7067C97.894 49.7059 97.4383 49.5461 97.07 49.2531C96.7017 48.96 96.4422 48.5509 96.3333 48.0914L95.4848 45.7143L94.303 42.301L91.4545 34.3467L90.6667 32.0914C90.8485 37.5467 91 43.0019 91.1818 48.4571V48.7619C91.2565 49.2671 91.2565 49.7806 91.1818 50.2857C91.0984 50.7025 90.9054 51.0891 90.623 51.4054C90.3405 51.7216 89.9789 51.9559 89.5757 52.0838C89.3267 52.1455 89.0658 52.1384 88.8204 52.0633C88.5751 51.9882 88.3544 51.8479 88.1818 51.6572C87.1818 50.5295 86.1515 49.4324 85.1515 48.3352C83.3333 46.4152 81.4545 44.4038 79.7879 42.24C78.9697 41.4781 78.1515 40.5943 77.3333 39.6191ZM128.848 28.6781C128.402 28.6637 127.969 28.5191 127.603 28.2618C127.237 28.0045 126.953 27.6457 126.786 27.229C126.619 26.8124 126.576 26.3559 126.663 25.9151C126.749 25.4744 126.961 25.0684 127.273 24.7467C127.728 24.3068 128.338 24.0658 128.97 24.0762C129.282 24.0797 129.59 24.1463 129.877 24.2719C130.163 24.3975 130.421 24.5797 130.636 24.8076C130.845 25.0309 131.007 25.2947 131.111 25.5829C131.215 25.8711 131.26 26.1777 131.242 26.4838C131.242 26.7969 131.174 27.1062 131.043 27.3903C130.913 27.6745 130.722 27.9267 130.485 28.1295C130.075 28.523 129.536 28.7508 128.97 28.7695L128.848 28.6781ZM128.848 24.7771C128.451 24.7921 128.073 24.955 127.788 25.2343C127.642 25.3704 127.527 25.5355 127.448 25.7193C127.37 25.903 127.331 26.1011 127.333 26.301C127.333 26.6978 127.483 27.0799 127.753 27.3689C128.024 27.6579 128.394 27.8319 128.788 27.8552C129.009 27.8799 129.232 27.8544 129.442 27.7805C129.652 27.7067 129.843 27.5864 130 27.4286C130.15 27.2883 130.271 27.1186 130.354 26.9301C130.438 26.7415 130.482 26.5378 130.485 26.3314C130.496 26.1313 130.466 25.9311 130.399 25.7426C130.331 25.5541 130.226 25.3812 130.091 25.2343C129.805 24.9341 129.413 24.759 129 24.7467L128.848 24.7771ZM68.2424 27.8248H68.0909C67.7815 27.8055 67.479 27.7245 67.2011 27.5863C66.9233 27.4482 66.6755 27.2558 66.4724 27.0203C66.2693 26.7848 66.1148 26.511 66.0181 26.2148C65.9214 25.9186 65.8843 25.606 65.9091 25.2952C65.9787 24.6859 66.2494 24.1177 66.6778 23.6812C67.1063 23.2448 67.6678 22.9654 68.2727 22.8876C68.8846 23.0263 69.4312 23.3705 69.8223 23.8636C70.2135 24.3567 70.4258 24.9692 70.4242 25.6C70.4125 25.9141 70.3364 26.2223 70.2009 26.5055C70.0653 26.7886 69.8731 27.0406 69.6364 27.2457C69.32 27.5917 68.9087 27.8357 68.4545 27.9467L68.2424 27.8248ZM68.2424 27.0019C68.4445 27.027 68.6496 27.0073 68.8433 26.9441C69.0371 26.8809 69.2146 26.7758 69.3636 26.6362C69.5132 26.5017 69.6336 26.3374 69.717 26.1539C69.8004 25.9703 69.8452 25.7713 69.8485 25.5695C69.8507 25.1489 69.7155 24.7391 69.4637 24.4032C69.2118 24.0674 68.8573 23.824 68.4545 23.7105C68.0569 23.7917 67.6932 23.9926 67.4118 24.2865C67.1303 24.5804 66.9444 24.9535 66.8788 25.3562C66.8619 25.7689 67.0029 26.1724 67.2727 26.4838C67.5369 26.7836 67.906 26.9692 68.303 27.0019H68.2424ZM109.091 17.3105C108.467 17.2789 107.879 17.0029 107.455 16.5417C107.03 16.0804 106.802 15.4703 106.818 14.8419C106.812 14.5037 106.873 14.1676 106.998 13.8535C107.123 13.5394 107.309 13.2537 107.545 13.0133C107.742 12.7985 107.981 12.6277 108.247 12.5122C108.513 12.3966 108.801 12.3389 109.091 12.3429C109.703 12.342 110.29 12.5827 110.727 13.0133C111.19 13.5187 111.44 14.1853 111.424 14.8724C111.428 15.2084 111.363 15.5416 111.232 15.851C111.102 16.1605 110.909 16.4395 110.667 16.6705C110.238 17.0729 109.677 17.301 109.091 17.3105ZM109.091 13.1352C108.701 13.1457 108.331 13.3099 108.061 13.5924C107.892 13.751 107.761 13.9456 107.677 14.1618C107.593 14.3781 107.559 14.6104 107.576 14.8419C107.559 15.2573 107.706 15.6625 107.983 15.9704C108.261 16.2782 108.648 16.464 109.061 16.4876C109.262 16.4964 109.463 16.463 109.651 16.3895C109.838 16.3161 110.009 16.2042 110.151 16.061C110.308 15.9 110.432 15.7094 110.515 15.5002C110.598 15.291 110.64 15.0672 110.636 14.8419C110.649 14.3823 110.487 13.9351 110.182 13.5924C109.884 13.3135 109.497 13.1512 109.091 13.1352ZM87.5454 17.3105C87.2371 17.31 86.9322 17.2447 86.6504 17.1187C86.3686 16.9928 86.1161 16.8089 85.9091 16.5791C85.6688 16.3427 85.4822 16.057 85.3619 15.7414C85.2416 15.4258 85.1905 15.0878 85.2121 14.7505C85.2297 14.0703 85.5128 13.4244 86 12.9524C86.222 12.7422 86.4843 12.5797 86.7709 12.4749C87.0574 12.3701 87.3622 12.3252 87.6667 12.3429C88.2745 12.4107 88.8361 12.7016 89.2441 13.1598C89.652 13.6181 89.8775 14.2116 89.8775 14.8267C89.8775 15.4417 89.652 16.0352 89.2441 16.4935C88.8361 16.9518 88.2745 17.2427 87.6667 17.3105H87.5454ZM87.5454 13.1657C87.3561 13.1595 87.1675 13.1914 86.9906 13.2594C86.8137 13.3275 86.6521 13.4303 86.5151 13.5619C86.3485 13.7169 86.2164 13.9058 86.1276 14.1159C86.0388 14.326 85.9953 14.5527 86 14.781C85.9869 15.0094 86.0205 15.2381 86.0987 15.453C86.1769 15.6679 86.298 15.8644 86.4545 16.0305C86.592 16.174 86.7567 16.2884 86.9389 16.3669C87.121 16.4454 87.317 16.4865 87.5151 16.4876C87.925 16.4876 88.3181 16.3239 88.6079 16.0324C88.8978 15.7409 89.0606 15.3456 89.0606 14.9333C89.0815 14.721 89.0603 14.5067 88.9983 14.3027C88.9364 14.0987 88.8349 13.909 88.6996 13.7447C88.5644 13.5803 88.3981 13.4445 88.2104 13.3452C88.0227 13.2458 87.8173 13.1848 87.606 13.1657H87.5454Z" fill="#474747"/>
<path d="M98.303 67.6571C93 67.6571 87.697 67.6571 82.3939 67.6571C78 67.6571 78.2121 67.6571 78.2121 63.4209C78.1916 62.5171 78.5046 61.6377 79.0909 60.9524C79.6212 60.4609 80.2681 60.1146 80.9697 59.9466C87.1244 57.7763 93.6361 56.8142 100.151 57.1124C105.179 57.2304 110.162 58.093 114.939 59.6724C115.641 59.8466 116.295 60.1752 116.854 60.6346C117.414 61.0939 117.865 61.6725 118.175 62.3286C118.486 62.9847 118.647 63.7019 118.648 64.4283C118.649 65.1548 118.49 65.8725 118.182 66.5295C117.788 67.5657 116.939 67.6571 116 67.6571H98.303ZM98.303 64.3657H114.091C114.485 64.3657 115.091 64.64 115.182 63.939C115.273 63.2381 114.697 63.2686 114.303 63.1162C110.937 61.9695 107.465 61.163 103.939 60.7086C97.8479 59.8947 91.6545 60.3723 85.7576 62.1105C84.7273 62.3847 83.6969 62.6895 82.7273 63.0247C82.2121 63.2076 81.3939 63.2076 81.606 64.0305C81.8182 64.8533 82.4242 64.3657 82.8788 64.3657H98.303Z" fill="#474747"/>
<path d="M116.909 70.0952H80.7879C80.396 70.1492 80.0369 70.3442 79.7769 70.6439C79.5169 70.9437 79.3737 71.328 79.3737 71.7257C79.3737 72.1235 79.5169 72.5078 79.7769 72.8075C80.0369 73.1073 80.396 73.3022 80.7879 73.3562H116.909C117.301 73.3022 117.66 73.1073 117.92 72.8075C118.18 72.5078 118.323 72.1235 118.323 71.7257C118.323 71.328 118.18 70.9437 117.92 70.6439C117.66 70.3442 117.301 70.1492 116.909 70.0952Z" fill="#474747"/>
<path d="M84.4546 80.4571L113.727 78.9028C115.788 78.9028 115.818 75.52 113.727 75.6419L84.4546 77.1962C82.3637 77.1962 82.3637 80.579 84.4546 80.4571Z" fill="#474747"/>
</svg>
