<svg width="40" height="30" viewBox="0 0 40 30" fill="none" xmlns="http://www.w3.org/2000/svg">
<path d="M0.00740051 4.82595L19.5096 14.5759L39.0119 4.82595C38.9397 3.58329 38.3951 2.41527 37.4897 1.56109C36.5843 0.706907 35.3866 0.231217 34.1418 0.231445H4.87748C3.63273 0.231217 2.43499 0.706907 1.52958 1.56109C0.624167 2.41527 0.0795959 3.58329 0.00740051 4.82595Z" fill="#474747"/>
<path d="M39.0191 10.2744L19.5096 20.0292L0 10.2744V24.6188C0 25.9124 0.513866 27.153 1.42855 28.0677C2.34324 28.9823 3.58383 29.4962 4.87739 29.4962H34.1417C35.4353 29.4962 36.6759 28.9823 37.5906 28.0677C38.5053 27.153 39.0191 25.9124 39.0191 24.6188V10.2744Z" fill="#474747"/>
</svg>
