<svg width="35" height="36" viewBox="0 0 35 36" fill="none" xmlns="http://www.w3.org/2000/svg">
<path d="M34.8743 10.3438C34.8547 8.8723 34.5793 7.41546 34.0603 6.0384C33.6102 4.87687 32.9228 3.82199 32.042 2.94116C31.1611 2.06033 30.1062 1.37292 28.9447 0.922858C27.5854 0.41258 26.1493 0.136663 24.6976 0.106857C22.8286 0.0233144 22.236 0 17.4916 0C12.7471 0 12.139 1.30279e-07 10.2836 0.106857C8.83254 0.136882 7.39714 0.412795 6.0384 0.922858C4.87669 1.37261 3.82164 2.05991 2.94077 2.94077C2.05991 3.82164 1.37261 4.87669 0.922858 6.0384C0.411558 7.39672 0.136239 8.83245 0.1088 10.2836C0.0252571 12.1545 0 12.7471 0 17.4916C0 22.236 -1.44754e-08 22.8422 0.1088 24.6996C0.137943 26.1528 0.411886 27.5867 0.922858 28.9486C1.37336 30.11 2.06117 31.1646 2.94233 32.0451C3.8235 32.9256 4.87864 33.6126 6.04035 34.0622C7.39536 34.593 8.83102 34.8886 10.2855 34.9365C12.1565 35.02 12.749 35.0453 17.4935 35.0453C22.238 35.0453 22.8461 35.0453 24.7015 34.9365C26.1531 34.9079 27.5893 34.6326 28.9486 34.1224C30.1098 33.6718 31.1644 32.9842 32.0452 32.1035C32.926 31.2227 33.6136 30.1681 34.0641 29.0069C34.5751 27.6469 34.8491 26.213 34.8782 24.7578C34.9617 22.8888 34.987 22.2962 34.987 17.5498C34.9831 12.8054 34.9831 12.2031 34.8743 10.3438ZM17.4799 26.4637C12.5178 26.4637 8.49806 22.4439 8.49806 17.4818C8.49806 12.5198 12.5178 8.50001 17.4799 8.50001C19.862 8.50001 22.1466 9.44631 23.831 11.1307C25.5154 12.8151 26.4617 15.0997 26.4617 17.4818C26.4617 19.864 25.5154 22.1485 23.831 23.833C22.1466 25.5174 19.862 26.4637 17.4799 26.4637ZM26.8192 10.2622C25.6593 10.2622 24.7248 9.32572 24.7248 8.16778C24.7248 7.89286 24.779 7.62064 24.8842 7.36666C24.9894 7.11267 25.1436 6.88189 25.338 6.6875C25.5324 6.49311 25.7631 6.33891 26.0171 6.2337C26.2711 6.1285 26.5433 6.07435 26.8183 6.07435C27.0932 6.07435 27.3654 6.1285 27.6194 6.2337C27.8734 6.33891 28.1041 6.49311 28.2985 6.6875C28.4929 6.88189 28.6471 7.11267 28.7523 7.36666C28.8575 7.62064 28.9117 7.89286 28.9117 8.16778C28.9117 9.32572 27.9752 10.2622 26.8192 10.2622Z" fill="#474747"/>
<path d="M17.4916 23.326C20.7138 23.326 23.326 20.7139 23.326 17.4916C23.326 14.2694 20.7138 11.6572 17.4916 11.6572C14.2693 11.6572 11.6572 14.2694 11.6572 17.4916C11.6572 20.7139 14.2693 23.326 17.4916 23.326Z" fill="#474747"/>
</svg>
