<svg width="315" height="263" viewBox="0 0 315 263" fill="none" xmlns="http://www.w3.org/2000/svg">
<path d="M130.106 128.411C113.063 108.494 96.7311 89.5396 80.5864 70.4349C78.6703 68.0493 76.9718 69.2295 75.0487 69.6703C71.8278 70.5423 68.419 70.3946 65.2929 69.2477C62.1668 68.1007 59.4775 66.0109 57.5965 63.267C55.6047 60.7523 54.3944 57.7079 54.1146 54.5085C53.8349 51.3092 54.4979 48.0946 56.022 45.2607C57.5462 42.4267 59.8649 40.097 62.6927 38.5586C65.5206 37.0201 68.734 36.3399 71.9374 36.6019C74.2874 36.8301 76.564 37.5369 78.627 38.6788C80.6899 39.8208 82.4955 41.3735 83.9324 43.2415C85.3693 45.1095 86.4071 47.253 86.9818 49.5401C87.5565 51.8272 87.656 54.2093 87.2741 56.5396C86.9975 58.1109 86.2195 59.5943 88.2925 60.8727C108.884 73.483 129.467 86.1607 150.044 98.9057C151.158 97.1519 150.283 95.8316 149.818 94.4874C142.316 73.0402 134.657 51.4738 127.455 30.0928C126.466 27.3298 124.775 27.8296 122.852 27.6572C119.351 27.425 116.007 26.1368 113.261 23.9629C110.515 21.789 108.496 18.8316 107.472 15.4812C106.51 12.1897 106.597 8.67745 107.719 5.42983C108.842 2.18222 110.945 -0.640432 113.738 -2.64805C116.531 -4.65566 119.876 -5.74912 123.311 -5.77733C126.745 -5.80554 130.1 -4.7671 132.912 -2.80552C136.365 -0.445055 138.824 3.10633 139.818 7.17109C140.813 11.2359 140.274 15.5295 138.304 19.2328C137.398 20.941 136.785 22.1696 138.245 24.0634C153.417 43.9494 168.439 63.9556 183.506 83.8644C184.089 84.3736 184.71 84.8386 185.362 85.2558C185.728 81.0372 186.222 77.5135 186.243 73.9392C186.069 61.6919 188.522 49.4199 189.545 37.1308C190.067 30.8852 190.358 24.5807 191.09 18.2895C191.374 15.7312 189.915 15.3702 188.097 14.5619C184.434 12.7083 181.534 9.63807 179.894 5.87669C178.254 2.1153 177.975 -2.10339 179.106 -6.05734C180.281 -9.78999 182.763 -12.9782 186.097 -15.036C189.43 -17.0938 193.391 -17.8829 197.251 -17.2584C200.631 -16.6614 203.765 -15.1058 206.279 -12.7766C208.794 -10.4475 210.583 -7.44297 211.434 -4.12081C212.359 -0.973687 212.26 2.38919 211.151 5.48378C210.042 8.57835 207.981 11.245 205.263 13.1C204.329 13.6085 203.623 14.4533 203.289 15.462C202.956 16.4707 203.02 17.5673 203.468 18.5278C208.889 37.8442 214.191 57.2159 219.372 76.6429C221.177 83.1042 223.012 89.6027 224.779 96.094C226.546 102.585 226.045 103.724 220.006 106.55C209.535 111.455 199.33 116.909 189.432 122.889C172.851 132.896 160.476 147.373 148.281 162.074C146.396 164.324 144.6 166.686 142.775 169.011C139.198 173.6 137.664 173.912 132.56 171.082L86.6681 144.289C78.054 139.311 69.365 134.393 60.7958 129.318C60.3891 128.975 59.9173 128.717 59.4083 128.561C58.8993 128.404 58.3636 128.351 57.8331 128.405C57.3025 128.459 56.788 128.62 56.3199 128.877C55.8519 129.133 55.44 129.481 55.1086 129.9C52.2164 132.432 48.5238 133.862 44.6855 133.937C40.8472 134.011 37.1114 132.725 34.1405 130.306C30.985 127.886 28.781 124.435 27.911 120.553C27.041 116.67 27.5598 112.601 29.3775 109.051C31.1389 105.621 34.0706 102.931 37.6404 101.471C41.2101 100.01 45.1813 99.8749 48.8327 101.09C51.8356 101.939 54.5356 103.617 56.6231 105.931C58.7107 108.246 60.1014 111.103 60.6361 114.177C60.6885 115.133 61.1116 116.03 61.8158 116.678C62.5199 117.326 63.4497 117.674 64.4082 117.647C80.8869 120.233 97.4104 122.722 113.859 125.577C119.216 126.826 124.64 127.772 130.106 128.411ZM107.087 84.9625L106.541 84.6654L106.93 85.15C119.52 99.8538 132.154 114.562 144.833 129.276C146.126 130.539 147.262 131.953 148.216 133.488C150.005 137.325 148.135 141.586 144.858 141.03C132.023 139.074 118.553 137.628 105.816 134.797C100.233 133.516 94.4937 133.036 88.7613 132.183C103.715 141.758 118.892 150.54 133.995 159.382C136.173 160.638 136.906 159.252 137.916 157.828C156.824 131.939 182.258 111.511 211.616 98.6327C214.445 97.4034 214.497 96.0125 213.71 93.5778C210.655 82.1113 207.66 70.7194 204.268 59.5233C203.063 55.3405 201.573 51.2633 200.405 47.0504L199.155 47.2569C198.482 53.0095 198.049 58.7538 197.609 64.5653C196.728 76.495 195.106 88.3452 193.784 100.262C193.223 105.311 191.869 104.927 187.835 104.426C186.877 104.181 185.984 103.732 185.218 103.109C184.452 102.485 183.831 101.703 183.397 100.816C172.409 86.216 161.384 71.646 150.426 57.0833C149.438 55.8532 148.45 54.6231 147.432 53.3557C147.387 54.9567 147.662 56.5495 148.241 58.041C154.295 75.1318 160.342 92.1878 166.381 109.209C166.979 110.342 167.165 111.649 166.907 112.906C166.65 114.164 165.964 115.295 164.968 116.108C164.002 116.851 162.816 117.247 161.599 117.234C160.383 117.221 159.208 116.799 158.263 116.036C152.905 112.736 147.591 109.338 142.165 106.031C130.385 99.1804 118.732 92.1051 107.087 84.9625ZM119.339 5.88863C118.147 7.025 117.425 8.56511 117.313 10.2045C117.202 11.8438 117.71 13.4631 118.738 14.742C119.765 16.021 121.236 16.8665 122.861 17.1115C124.486 17.3565 126.146 16.983 127.512 16.065C128.178 15.5471 128.733 14.8999 129.142 14.1627C129.551 13.4254 129.807 12.6133 129.894 11.7756C129.98 10.9379 129.896 10.0919 129.646 9.28888C129.396 8.48585 128.985 7.74245 128.439 7.10364C127.942 6.40156 127.306 5.8096 126.57 5.36463C125.834 4.91966 125.014 4.6312 124.16 4.51722C123.306 4.40325 122.438 4.46618 121.608 4.70212C120.779 4.93806 120.006 5.34195 119.339 5.88863ZM65.438 57.0916C65.924 57.7794 66.5432 58.3625 67.2592 58.8067C67.9752 59.2509 68.7734 59.547 69.6068 59.6777C70.4402 59.8084 71.2919 59.771 72.1118 59.5678C72.9317 59.3645 73.7031 58.9994 74.3807 58.4941C75.6435 57.464 76.4546 55.9825 76.6403 54.3664C76.826 52.7503 76.3717 51.128 75.3745 49.8465C74.9076 49.1498 74.307 48.5527 73.6073 48.0897C72.9076 47.6267 72.1227 47.3069 71.2978 47.1487C70.4728 46.9905 69.6241 46.9971 68.8005 47.168C67.9769 47.3389 67.1948 47.6709 66.499 48.1447C65.8195 48.6482 65.25 49.2852 64.8257 50.0163C64.4013 50.7474 64.1311 51.5571 64.0316 52.3955C63.9322 53.2339 64.0057 54.0831 64.2476 54.8908C64.4894 55.6985 64.8946 56.4475 65.438 57.0916ZM48.118 122.575C48.7795 122.11 49.3432 121.52 49.7766 120.838C50.21 120.155 50.5046 119.395 50.6435 118.6C50.7824 117.804 50.7629 116.99 50.5861 116.203C50.4093 115.417 50.0787 114.673 49.6132 114.016C48.5734 112.73 47.132 111.83 45.5183 111.46C43.9046 111.089 42.2112 111.269 40.7077 111.97C39.5528 113.115 38.8067 114.607 38.5851 116.215C38.3635 117.823 38.6788 119.458 39.482 120.865C39.9212 121.56 40.4973 122.158 41.1753 122.623C41.8534 123.088 42.6194 123.41 43.4269 123.57C44.2343 123.73 45.0664 123.724 45.8728 123.553C46.6792 123.382 47.443 123.049 48.118 122.575ZM200.343 -3.98252C199.859 -4.62643 199.251 -5.1671 198.555 -5.57305C197.858 -5.97899 197.087 -6.24207 196.287 -6.34698C195.487 -6.45189 194.673 -6.39652 193.893 -6.18408C193.113 -5.97166 192.383 -5.60642 191.745 -5.10966C190.797 -4.37189 190.088 -3.37151 189.706 -2.23417C189.324 -1.09683 189.286 0.126741 189.598 1.28286C189.91 2.43898 190.557 3.4761 191.458 4.26395C192.359 5.0518 193.473 5.55524 194.662 5.71104C195.851 5.86685 197.06 5.66808 198.138 5.13968C199.217 4.61129 200.116 3.77685 200.723 2.74116C201.33 1.70546 201.618 0.514703 201.55 -0.681544C201.483 -1.8778 201.063 -3.02621 200.343 -3.98252Z" fill="white" fill-opacity="0.6"/>
<path d="M200.777 160.97C187.683 171.487 174.589 182.004 161.532 192.49C150.721 201.174 151.102 200.5 142.959 190.361C141.014 188.16 139.99 185.295 140.099 182.356C140.468 180.099 141.407 177.972 142.829 176.177C153.781 158.698 167.964 143.456 184.615 131.27C197.248 121.604 211.221 113.831 226.091 108.198C228.204 107.167 230.523 106.629 232.871 106.625C235.219 106.621 237.536 107.151 239.645 108.175C241.754 109.199 243.601 110.69 245.045 112.535C246.49 114.38 247.494 116.531 247.982 118.824C249.007 122.17 247.092 124.077 244.772 125.94L200.777 160.97ZM194.31 152.918L233.217 121.668C234.19 120.887 236.151 120.416 234.998 118.521C233.845 116.626 232.491 117.775 231.249 118.221C220.708 122.068 210.575 126.96 201.004 132.824C184.398 142.856 170.038 156.206 158.827 172.035C156.822 174.749 154.877 177.538 153.171 180.318C152.229 181.75 150.276 183.38 152.342 185.032C154.407 186.684 155.065 184.132 156.113 183.291L194.31 152.918Z" fill="white" fill-opacity="0.6"/>
<path d="M251.501 130.102L162.425 201.647C161.363 202.499 160.682 203.738 160.532 205.088C160.382 206.439 160.775 207.793 161.625 208.85C162.475 209.908 163.711 210.584 165.063 210.729C166.414 210.874 167.77 210.477 168.832 209.624L257.908 138.079C258.969 137.227 259.65 135.989 259.8 134.638C259.95 133.287 259.557 131.933 258.707 130.876C257.858 129.818 256.621 129.142 255.269 128.997C253.918 128.852 252.562 129.249 251.501 130.102Z" fill="white" fill-opacity="0.6"/>
<path d="M191.807 219.686L260.942 158.025C265.858 153.648 259.488 145.641 254.535 150.048L185.55 211.895C180.634 216.272 187.004 224.28 191.957 219.872L191.807 219.686Z" fill="white" fill-opacity="0.6"/>
</svg>
