<svg width="13" height="12" viewBox="0 0 13 12" fill="none" xmlns="http://www.w3.org/2000/svg">
<path d="M12.3022 4.82747L8.58301 4.32298L6.92041 1.17708C6.875 1.09095 6.80029 1.02122 6.708 0.978838C6.47656 0.872197 6.19531 0.961065 6.07959 1.17708L4.41699 4.32298L0.697751 4.82747C0.595212 4.84114 0.501462 4.88626 0.429684 4.95462C0.34291 5.03786 0.295093 5.14985 0.296741 5.26599C0.298389 5.38212 0.349367 5.49289 0.438473 5.57396L3.12939 8.02259L2.49365 11.4802C2.47874 11.5606 2.48828 11.6434 2.52118 11.719C2.55408 11.7946 2.60902 11.8601 2.67979 11.9081C2.75055 11.9561 2.83429 11.9846 2.92153 11.9904C3.00877 11.9962 3.096 11.9791 3.17334 11.9409L6.5 10.3085L9.82666 11.9409C9.91748 11.9861 10.0229 12.0011 10.124 11.9847C10.3789 11.9437 10.5503 11.7181 10.5063 11.4802L9.8706 8.02259L12.5615 5.57396C12.6348 5.50696 12.6831 5.41946 12.6978 5.32376C12.7373 5.0845 12.5586 4.86302 12.3022 4.82747Z" fill="#FFBE83"/>
</svg>
